<svg width="38" height="38" viewBox="0 0 38 38" fill="none" xmlns="http://www.w3.org/2000/svg">
<rect width="38" height="38" rx="19" fill="white"/>
<path d="M10.8492 15.6201C10.7033 14.9626 10.7257 14.2789 10.9144 13.6324C11.1031 12.9859 11.452 12.3975 11.9287 11.9218C12.4054 11.4461 12.9945 11.0984 13.6414 10.9111C14.2883 10.7237 14.972 10.7028 15.6292 10.8501C15.9909 10.2844 16.4892 9.81886 17.0782 9.49638C17.6671 9.17391 18.3278 9.00488 18.9992 9.00488C19.6707 9.00488 20.3313 9.17391 20.9203 9.49638C21.5092 9.81886 22.0075 10.2844 22.3692 10.8501C23.0274 10.7021 23.7123 10.723 24.3602 10.9108C25.0081 11.0986 25.598 11.4472 26.0751 11.9243C26.5521 12.4013 26.9007 12.9912 27.0885 13.6391C27.2763 14.287 27.2972 14.9719 27.1492 15.6301C27.7149 15.9918 28.1805 16.4901 28.5029 17.079C28.8254 17.668 28.9944 18.3286 28.9944 19.0001C28.9944 19.6715 28.8254 20.3322 28.5029 20.9211C28.1805 21.5101 27.7149 22.0084 27.1492 22.3701C27.2966 23.0273 27.2756 23.711 27.0882 24.3579C26.9009 25.0048 26.5532 25.5939 26.0775 26.0706C25.6018 26.5473 25.0134 26.8962 24.3669 27.0849C23.7204 27.2736 23.0367 27.2961 22.3792 27.1501C22.018 27.718 21.5193 28.1855 20.9293 28.5094C20.3394 28.8333 19.6772 29.0032 19.0042 29.0032C18.3312 29.0032 17.669 28.8333 17.0791 28.5094C16.4891 28.1855 15.9905 27.718 15.6292 27.1501C14.972 27.2974 14.2883 27.2765 13.6414 27.0891C12.9945 26.9018 12.4054 26.5541 11.9287 26.0784C11.452 25.6027 11.1031 25.0143 10.9144 24.3678C10.7257 23.7213 10.7033 23.0376 10.8492 22.3801C10.2792 22.0193 9.80963 21.5203 9.48426 20.9293C9.1589 20.3384 8.98828 19.6747 8.98828 19.0001C8.98828 18.3255 9.1589 17.6618 9.48426 17.0709C9.80963 16.4799 10.2792 15.9809 10.8492 15.6201Z" stroke="url(#paint0_linear_680_1175)" stroke-width="2" stroke-linecap="round" stroke-linejoin="round"/>
<path d="M15 15H23" stroke="url(#paint1_linear_680_1175)" stroke-width="2" stroke-linecap="round" stroke-linejoin="round"/>
<path d="M15 19H23" stroke="url(#paint2_linear_680_1175)" stroke-width="2" stroke-linecap="round" stroke-linejoin="round"/>
<path d="M20 24L15 23H16C17.0609 23 18.0783 22.5786 18.8284 21.8284C19.5786 21.0783 20 20.0609 20 19C20 17.9391 19.5786 16.9217 18.8284 16.1716C18.0783 15.4214 17.0609 15 16 15" stroke="url(#paint3_linear_680_1175)" stroke-width="2" stroke-linecap="round" stroke-linejoin="round"/>
<defs>
<linearGradient id="paint0_linear_680_1175" x1="18.9914" y1="9.00488" x2="18.9914" y2="29.0032" gradientUnits="userSpaceOnUse">
<stop stop-color="#0C1954"/>
<stop offset="1" stop-color="#1233C6"/>
</linearGradient>
<linearGradient id="paint1_linear_680_1175" x1="19" y1="15" x2="19" y2="16" gradientUnits="userSpaceOnUse">
<stop stop-color="#0C1954"/>
<stop offset="1" stop-color="#1233C6"/>
</linearGradient>
<linearGradient id="paint2_linear_680_1175" x1="19" y1="19" x2="19" y2="20" gradientUnits="userSpaceOnUse">
<stop stop-color="#0C1954"/>
<stop offset="1" stop-color="#1233C6"/>
</linearGradient>
<linearGradient id="paint3_linear_680_1175" x1="17.5" y1="15" x2="17.5" y2="24" gradientUnits="userSpaceOnUse">
<stop stop-color="#0C1954"/>
<stop offset="1" stop-color="#1233C6"/>
</linearGradient>
</defs>
</svg>
