<svg width="38" height="38" viewBox="0 0 38 38" fill="none" xmlns="http://www.w3.org/2000/svg">
<rect width="38" height="38" rx="19" fill="white"/>
<path d="M20.678 23.568C20.8673 23.6628 21.0806 23.6845 21.2827 23.6294C21.4849 23.5744 21.6638 23.4458 21.7899 23.265L22.1154 22.8C22.2861 22.5516 22.5076 22.35 22.7621 22.2111C23.0167 22.0723 23.2974 22 23.582 22H26.332C26.8183 22 27.2846 22.2107 27.6284 22.5858C27.9722 22.9609 28.1654 23.4696 28.1654 24V27C28.1654 27.5304 27.9722 28.0391 27.6284 28.4142C27.2846 28.7893 26.8183 29 26.332 29C21.956 29 17.7591 27.1036 14.6648 23.7279C11.5704 20.3523 9.83203 15.7739 9.83203 11C9.83203 10.4696 10.0252 9.96086 10.369 9.58579C10.7128 9.21071 11.1791 9 11.6654 9H14.4154C14.9016 9 15.3679 9.21071 15.7117 9.58579C16.0555 9.96086 16.2487 10.4696 16.2487 11V14C16.2487 14.3105 16.1824 14.6167 16.0551 14.8944C15.9279 15.1721 15.7431 15.4137 15.5154 15.6L15.0864 15.951C14.9181 16.0912 14.7995 16.2906 14.7507 16.5154C14.7019 16.7401 14.7259 16.9764 14.8187 17.184C16.0715 19.9599 18.1319 22.2048 20.678 23.568Z" stroke="url(#paint0_linear_680_1159)" stroke-width="2" stroke-linecap="round" stroke-linejoin="round"/>
<defs>
<linearGradient id="paint0_linear_680_1159" x1="18.9987" y1="9" x2="18.9987" y2="29" gradientUnits="userSpaceOnUse">
<stop stop-color="#0C1954"/>
<stop offset="1" stop-color="#1233C6"/>
</linearGradient>
</defs>
</svg>
