<svg width="38" height="38" viewBox="0 0 38 38" fill="none" xmlns="http://www.w3.org/2000/svg">
<rect width="38" height="38" rx="19" fill="white"/>
<path d="M9 16C9.79565 16 10.5587 16.3161 11.1213 16.8787C11.6839 17.4413 12 18.2044 12 19C12 19.7956 11.6839 20.5587 11.1213 21.1213C10.5587 21.6839 9.79565 22 9 22V24C9 24.5304 9.21071 25.0391 9.58579 25.4142C9.96086 25.7893 10.4696 26 11 26H27C27.5304 26 28.0391 25.7893 28.4142 25.4142C28.7893 25.0391 29 24.5304 29 24V22C28.2044 22 27.4413 21.6839 26.8787 21.1213C26.3161 20.5587 26 19.7956 26 19C26 18.2044 26.3161 17.4413 26.8787 16.8787C27.4413 16.3161 28.2044 16 29 16V14C29 13.4696 28.7893 12.9609 28.4142 12.5858C28.0391 12.2107 27.5304 12 27 12L11 12C10.4696 12 9.96086 12.2107 9.58579 12.5858C9.21071 12.9609 9 13.4696 9 14V16Z" stroke="url(#paint0_linear_680_1195)" stroke-width="2" stroke-linecap="round" stroke-linejoin="round"/>
<path d="M20 12V14" stroke="url(#paint1_linear_680_1195)" stroke-width="2" stroke-linecap="round" stroke-linejoin="round"/>
<path d="M20 24V26" stroke="url(#paint2_linear_680_1195)" stroke-width="2" stroke-linecap="round" stroke-linejoin="round"/>
<path d="M20 18V20" stroke="url(#paint3_linear_680_1195)" stroke-width="2" stroke-linecap="round" stroke-linejoin="round"/>
<defs>
<linearGradient id="paint0_linear_680_1195" x1="19" y1="12" x2="19" y2="26" gradientUnits="userSpaceOnUse">
<stop stop-color="#0C1954"/>
<stop offset="1" stop-color="#1233C6"/>
</linearGradient>
<linearGradient id="paint1_linear_680_1195" x1="20.5" y1="12" x2="20.5" y2="14" gradientUnits="userSpaceOnUse">
<stop stop-color="#0C1954"/>
<stop offset="1" stop-color="#1233C6"/>
</linearGradient>
<linearGradient id="paint2_linear_680_1195" x1="20.5" y1="24" x2="20.5" y2="26" gradientUnits="userSpaceOnUse">
<stop stop-color="#0C1954"/>
<stop offset="1" stop-color="#1233C6"/>
</linearGradient>
<linearGradient id="paint3_linear_680_1195" x1="20.5" y1="18" x2="20.5" y2="20" gradientUnits="userSpaceOnUse">
<stop stop-color="#0C1954"/>
<stop offset="1" stop-color="#1233C6"/>
</linearGradient>
</defs>
</svg>
