<svg width="22" height="24" viewBox="0 0 22 24" fill="none" xmlns="http://www.w3.org/2000/svg">
<path d="M12.678 16.568C12.8673 16.6628 13.0806 16.6845 13.2827 16.6294C13.4849 16.5744 13.6638 16.4458 13.7899 16.265L14.1154 15.8C14.2861 15.5516 14.5076 15.35 14.7621 15.2111C15.0167 15.0723 15.2974 15 15.582 15L18.332 15C18.8183 15 19.2846 15.2107 19.6284 15.5858C19.9722 15.9609 20.1654 16.4696 20.1654 17V20C20.1654 20.5304 19.9722 21.0391 19.6284 21.4142C19.2846 21.7893 18.8183 22 18.332 22C13.956 22 9.75912 20.1036 6.66477 16.7279C3.57042 13.3523 1.83203 8.7739 1.83203 4C1.83203 3.46957 2.02519 2.96086 2.369 2.58579C2.71282 2.21071 3.17913 2 3.66536 2L6.41536 2C6.90159 2 7.36791 2.21071 7.71173 2.58579C8.05554 2.96086 8.2487 3.46957 8.2487 4V7C8.2487 7.31049 8.18243 7.61672 8.05515 7.89443C7.92786 8.17214 7.74306 8.41371 7.51536 8.6L7.08636 8.951C6.91808 9.09118 6.79947 9.29059 6.75067 9.51535C6.70188 9.74012 6.72592 9.97638 6.8187 10.184C8.07149 12.9599 10.1319 15.2048 12.678 16.568Z" stroke="url(#paint0_linear_665_1128)" stroke-width="2" stroke-linecap="round" stroke-linejoin="round"/>
<defs>
<linearGradient id="paint0_linear_665_1128" x1="1.83203" y1="12" x2="20.1654" y2="12" gradientUnits="userSpaceOnUse">
<stop stop-color="white"/>
<stop offset="1" stop-color="#999999"/>
</linearGradient>
</defs>
</svg>
